# xmcd CD database file
#
# Track frame offsets:
#	150
#	17220
#	34387
#	51537
#	65070
#	81950
#	99322
#	118355
#	137122
#	152925
#
# Disc length: 2278 seconds
#
# Revision: 4
# Processed by: cddbd v1.5.2PL0 Copyright (c) Steve Scherf et al.
# Submitted via: CDex 1.51
#
DISCID=9608e40a
DTITLE=Travis Tritt - No More Looking Over My Shoulder
DYEAR=1998
DGENRE=Country
TTITLE0=No More Looking Over My Shoulder
TTITLE1=Rough Around The Edges
TTITLE2=If I Lost You
TTITLE3=Girls Like That
TTITLE4=For You
TTITLE5=I'm All The Man
TTITLE6=Tougher Than The Rest
TTITLE7=Start The Car
TTITLE8=Mission Of Love
TTITLE9=The Road To You
EXTD=YEAR: 1998
EXTT0=
EXTT1=
EXTT2=
EXTT3=
EXTT4=
EXTT5=
EXTT6=
EXTT7=
EXTT8=
EXTT9=
PLAYORDER=
